<?xml version="1.0" encoding="UTF-8"?>
<svg version="1.1" xmlns="http://www.w3.org/2000/svg" width="1024" height="1024">
<path d="M0 0 C1.03012207 0.1018158 1.03012207 0.1018158 2.08105469 0.20568848 C55.69276037 5.516113 105.68706916 15.57768601 142.7890625 58.23828125 C153.69305358 71.85863759 162.11070803 87.32109351 166.9375 104.125 C167.12481689 104.76735596 167.31213379 105.40971191 167.50512695 106.0715332 C171.35113868 120.79210265 171.29585844 136.14550892 171.2746582 151.24121094 C171.27901663 153.31799501 171.28420349 155.39477748 171.29014587 157.47155762 C171.30342628 163.06271015 171.30412682 168.65379463 171.30158257 174.24495983 C171.30050527 178.93613856 171.30541554 183.62730394 171.310188 188.31847978 C171.32124552 199.39885365 171.32174196 210.47919361 171.31567383 221.55957031 C171.30963831 232.9367732 171.32194308 244.31385229 171.3432439 255.69103408 C171.36093858 265.50819228 171.36684888 275.32531136 171.36360615 285.1424849 C171.3618055 290.98414118 171.36430638 296.82570914 171.37832069 302.66735077 C171.39102312 308.1669041 171.38883932 313.6662664 171.37590981 319.16581726 C171.37357115 321.16625792 171.37617929 323.16671256 171.38453293 325.16713715 C171.54016791 365.38519215 160.72588421 399.86875801 132.3125 429.0625 C126.13298065 435.23407269 119.30051893 440.23972011 112 445 C111.03578125 445.63679688 110.0715625 446.27359375 109.078125 446.9296875 C90.31835034 458.58976844 68.24305194 464.17605285 46.28263855 464.13130188 C44.8773199 464.13447545 44.8773199 464.13447545 43.44361097 464.13771313 C40.32592071 464.14367129 37.20827141 464.14271597 34.09057617 464.1418457 C31.84586519 464.14488011 29.60115483 464.14840235 27.35644531 464.15237427 C22.53078837 464.16024413 17.70513875 464.16540106 12.87947655 464.16866493 C5.23231648 464.17459775 -2.41479759 464.19116117 -10.06193542 464.21000671 C-12.68557832 464.21634375 -15.30922124 464.22266938 -17.93286419 464.22898388 C-19.9035429 464.2337326 -19.9035429 464.2337326 -21.91403329 464.23857725 C-28.70074266 464.25472335 -35.48745518 464.26927179 -42.27416992 464.28295898 C-43.29491436 464.28502279 -43.29491436 464.28502279 -44.33627989 464.28712829 C-55.3379221 464.3090092 -66.33955279 464.31980372 -77.34121291 464.32732973 C-88.67341331 464.33543821 -100.00549881 464.35910961 -111.33765048 464.3952834 C-117.68522239 464.41495166 -124.03262373 464.42747945 -130.38022804 464.42244911 C-136.36153224 464.41776669 -142.34251405 464.43180257 -148.32375336 464.45946121 C-150.50358967 464.46631304 -152.68345976 464.46656541 -154.8632946 464.45926094 C-189.41103538 464.3553005 -217.86154515 474.59245602 -243.47265625 498.4765625 C-256.03608199 511.02057027 -265.64265051 527.46503332 -270.75 544.4375 C-270.94875732 545.09266602 -271.14751465 545.74783203 -271.35229492 546.42285156 C-275.19212314 559.97828455 -275.28280699 573.33582607 -275.27439499 587.31632423 C-275.27342051 590.89440006 -275.28647733 594.47218305 -275.30337524 598.05021667 C-275.34939084 608.21371283 -275.37427132 618.37717449 -275.38085938 628.54077148 C-275.3858768 634.78043521 -275.41012579 641.01978633 -275.44618607 647.2593441 C-275.45596582 649.62792776 -275.45832602 651.99655447 -275.45301437 654.36515236 C-275.4459344 657.67452095 -275.46324223 660.98295596 -275.48583984 664.29223633 C-275.47358116 665.74730339 -275.47358116 665.74730339 -275.46107483 667.23176575 C-275.54666626 674.29303963 -277.13697338 679.54301214 -281.67578125 685.0234375 C-282.48595703 685.69246094 -282.48595703 685.69246094 -283.3125 686.375 C-283.84488281 686.83648438 -284.37726563 687.29796875 -284.92578125 687.7734375 C-290.18428253 690.8829844 -295.86525123 691.29367301 -301.83691406 691.25878906 C-302.96309647 691.26404602 -302.96309647 691.26404602 -304.11203003 691.26940918 C-306.57999091 691.27816629 -309.04766146 691.27239154 -311.515625 691.265625 C-313.25372369 691.26697507 -314.99182202 691.26891843 -316.72991943 691.27142334 C-320.37467033 691.27436792 -324.01932306 691.27010468 -327.6640625 691.26074219 C-332.2794813 691.24945015 -336.89466479 691.2558456 -341.51007462 691.26788712 C-345.10518066 691.27521165 -348.7002336 691.2727683 -352.29534149 691.26763153 C-353.99336527 691.26631871 -355.69139424 691.26785723 -357.38941193 691.27259064 C-372.46171255 691.30534145 -388.09636596 690.96717048 -402.6875 686.8125 C-403.46311279 686.59819336 -404.23872559 686.38388672 -405.0378418 686.16308594 C-423.28389572 680.89618377 -438.7883052 671.54910871 -453 659 C-453.66 658.42378906 -454.32 657.84757813 -455 657.25390625 C-502.16547218 613.13453748 -513.42438809 530.35235376 -515.75 469.4375 C-517.22000734 418.92483335 -511.0559514 359.48819345 -490 313 C-489.69481445 312.3208252 -489.38962891 311.64165039 -489.07519531 310.94189453 C-472.96897538 275.68345971 -444.21240049 247.2605598 -408 233 C-390.09987865 226.42814236 -372.17765942 222.82841477 -353.0980072 222.87974548 C-351.34075383 222.87846385 -351.34075383 222.87846385 -349.5480004 222.87715632 C-346.31887086 222.87580034 -343.08978206 222.87890138 -339.86065733 222.88393438 C-336.36998541 222.88827145 -332.87931522 222.88679015 -329.38864136 222.8860321 C-323.34828687 222.88550893 -317.30794323 222.88863415 -311.26759148 222.89426994 C-302.53436423 222.90241292 -293.8011422 222.90500303 -285.06791157 222.90625793 C-270.89724082 222.90844406 -256.72657583 222.91509223 -242.5559082 222.92456055 C-228.79418975 222.93374603 -215.03247286 222.94082131 -201.27075195 222.94506836 C-199.99735811 222.94546244 -199.99735811 222.94546244 -198.69823914 222.94586449 C-194.43921455 222.94716957 -190.18018995 222.94843327 -185.92116535 222.94967639 C-150.61410595 222.96003532 -115.3070539 222.97791779 -80 223 C-80 215.41 -80 207.82 -80 200 C-82.41046127 200.00888245 -84.82092255 200.01776489 -87.3044281 200.0269165 C-110.00860965 200.10866562 -132.7127718 200.168188 -155.41706753 200.20724869 C-167.08987174 200.2278649 -178.76256789 200.25596764 -190.43530273 200.30175781 C-200.61047265 200.34165423 -210.78556428 200.36743966 -220.96081024 200.37635398 C-226.34744557 200.38156393 -231.73385697 200.39378989 -237.12042046 200.42292023 C-242.19374706 200.45013349 -247.26675817 200.45843299 -252.34015083 200.45243073 C-254.19889161 200.45352831 -256.05764329 200.46144685 -257.9163208 200.4768219 C-278.00792851 200.63482422 -278.00792851 200.63482422 -284.55901241 194.55255508 C-291.09937379 187.18631442 -291.15379334 179.51773476 -291.1328125 170.125 C-291.13376923 169.16464844 -291.13472595 168.20429688 -291.13571167 167.21484375 C-291.1363912 165.17740819 -291.13455275 163.13997044 -291.13037109 161.10253906 C-291.12511374 158.06570201 -291.13027428 155.02901938 -291.13671875 151.9921875 C-291.14078024 142.02351573 -291.002417 132.07327393 -290.5703125 122.11328125 C-290.51534103 120.80188171 -290.51534103 120.80188171 -290.45925903 119.46398926 C-289.18181779 93.07982899 -282.25504047 67.76807085 -264 48 C-263.37738281 47.29746094 -262.75476563 46.59492187 -262.11328125 45.87109375 C-228.1877523 9.52739293 -166.40957598 4.32417102 -120 0 C-118.96504395 -0.10441406 -117.93008789 -0.20882812 -116.86376953 -0.31640625 C-78.48202853 -4.08716022 -38.36503572 -3.87141822 0 0 Z " fill="#3479B3" transform="translate(553,37)"/>
<path d="M0 0 C1.2249543 -0.01073296 1.2249543 -0.01073296 2.47465515 -0.02168274 C3.36752228 -0.02437164 4.2603894 -0.02706055 5.18031311 -0.02983093 C6.12398239 -0.03640213 7.06765167 -0.04297333 8.03991699 -0.04974365 C11.17403752 -0.06950185 14.30810971 -0.08115426 17.442276 -0.09111023 C18.51781801 -0.09518576 19.59336002 -0.09926128 20.70149422 -0.10346031 C26.41090325 -0.12434678 32.12028817 -0.13862883 37.82972717 -0.147995 C43.67835946 -0.15897371 49.5266022 -0.19326594 55.37509823 -0.23316669 C59.90957247 -0.25956796 64.44395798 -0.2677082 68.97850227 -0.27127647 C71.13067269 -0.27609399 73.28284047 -0.28756631 75.43493462 -0.30631447 C107.59312886 -0.56870439 135.01366105 7.22080547 158.97743225 29.14717102 C160.08538147 30.14877258 160.08538147 30.14877258 161.2157135 31.17060852 C210.33468001 77.82870496 221.19287628 169.11476191 222.88807678 233.56611633 C224.02725179 300.42761643 207.82102614 384.44091197 160.97743225 435.14717102 C160.25169006 435.95412415 159.52594788 436.76107727 158.7782135 437.59248352 C142.40310387 454.96644457 118.76581567 465.89988507 94.91710913 467.3307879 C91.54650613 467.3973081 88.18112952 467.40429661 84.80990601 467.38768005 C82.88470549 467.39024333 82.88470549 467.39024333 80.92061204 467.39285839 C77.38812769 467.39729653 73.85576633 467.38937739 70.32329762 467.37930226 C66.50273296 467.37061864 62.68217454 467.37359138 58.86160278 467.37510681 C52.25214321 467.37615257 45.6427233 467.36990838 39.0332737 467.35863113 C29.4772714 467.34233706 19.92128818 467.33716414 10.3652735 467.33465515 C-5.14088952 467.33028417 -20.64703142 467.31699129 -36.15318298 467.29804993 C-51.2107991 467.27967566 -66.26840947 467.26552673 -81.32603455 467.2570343 C-82.25508721 467.25650885 -83.18413987 467.25598341 -84.14134564 467.25544204 C-88.80239886 467.25283185 -93.46345212 467.25030446 -98.1245054 467.24781823 C-136.75720835 467.22710432 -175.38988502 467.1913424 -214.02256775 467.14717102 C-214.02256775 475.06717102 -214.02256775 482.98717102 -214.02256775 491.14717102 C-210.44446007 491.13717827 -210.44446007 491.13717827 -206.79406738 491.12698364 C-184.32533057 491.0656704 -161.85660479 491.02102934 -139.38780308 490.9917345 C-127.83609271 490.97627272 -116.28444377 490.95519629 -104.73277283 490.92085266 C-94.66307866 490.89092931 -84.59342899 490.87159101 -74.52369159 490.86490554 C-69.19299017 490.86099828 -63.86241603 490.85182985 -58.53175545 490.82998085 C-53.51099438 490.80956941 -48.49041265 490.80334667 -43.46961403 490.80784798 C-41.63023147 490.80702486 -39.79084271 490.80108706 -37.95149612 490.7895546 C-17.27906053 490.6663343 -17.27906053 490.6663343 -10.42881775 496.26826477 C-9.79975525 497.03267883 -9.17069275 497.7970929 -8.52256775 498.58467102 C-7.87288025 499.34650696 -7.22319275 500.1083429 -6.55381775 500.89326477 C-3.95832754 504.71366745 -3.8928562 508.20104536 -3.86143494 512.74751282 C-3.85182739 513.8735643 -3.84221985 514.99961578 -3.83232117 516.15979004 C-3.82594635 517.98465691 -3.82594635 517.98465691 -3.81944275 519.84638977 C-3.81374268 521.10997818 -3.8080426 522.37356659 -3.8021698 523.67544556 C-3.79271603 526.35787037 -3.78582282 529.04018332 -3.78233337 531.72261047 C-3.7779811 534.44084844 -3.76421744 537.1587632 -3.74131775 539.87690735 C-3.45382399 576.66487826 -10.57596983 607.76533412 -37.08506775 634.77217102 C-86.856927 683.96151762 -170.3547299 697.63262449 -237.66044617 697.51777649 C-301.01013341 697.14418311 -379.30332173 683.32659889 -426.94444275 638.08467102 C-429.03238173 636.07884958 -429.03238173 636.07884958 -431.51475525 634.21748352 C-436.04026237 630.48147297 -439.43526708 625.76295512 -443.02256775 621.14717102 C-443.94102478 619.96961243 -443.94102478 619.96961243 -444.8780365 618.76826477 C-453.87153782 606.60542889 -459.67211913 592.84122437 -463.02256775 578.14717102 C-463.28306805 577.01514724 -463.28306805 577.01514724 -463.54883099 575.86025429 C-465.59945938 565.47548821 -465.31117067 555.04500965 -465.29722595 544.50801086 C-465.30157924 542.32857591 -465.30676444 540.14914249 -465.31271362 537.9697113 C-465.32605117 532.07682189 -465.32668794 526.18399682 -465.32415032 520.29109526 C-465.32307664 515.3563227 -465.32797432 510.42156296 -465.33275574 505.48679316 C-465.34383369 493.83369964 -465.34429855 482.18063835 -465.33824158 470.52754211 C-465.33220825 458.54428548 -465.34450049 446.56116981 -465.36581165 434.57792509 C-465.38348462 424.25730979 -465.38941989 413.93673172 -465.3861739 403.61610186 C-465.38436933 397.46650723 -465.38691387 391.31699642 -465.40088844 385.16741562 C-465.41355447 379.37738634 -465.41144043 373.58753886 -465.39847755 367.79751205 C-465.39613088 365.68616166 -465.39877692 363.57479812 -465.40710068 361.46346283 C-465.52737406 328.55315999 -457.45911726 294.86406537 -434.17906189 270.19355774 C-432.47898228 268.49060674 -430.75714219 266.81483147 -429.02256775 265.14717102 C-428.25944275 264.36342102 -427.49631775 263.57967102 -426.71006775 262.77217102 C-425.82319275 261.90592102 -424.93631775 261.03967102 -424.02256775 260.14717102 C-423.34967712 259.48974915 -422.6767865 258.83232727 -421.98350525 258.15498352 C-399.16709548 236.6763437 -368.31679162 225.97012134 -337.23396301 226.00914001 C-335.83537998 226.0049081 -335.83537998 226.0049081 -334.40854275 226.00059068 C-331.31226508 225.99231764 -328.2160235 225.99091274 -325.11973572 225.98945618 C-322.88809103 225.98478255 -320.65644729 225.97963808 -318.42480469 225.97406006 C-313.63135239 225.96281573 -308.83790618 225.95436393 -304.04444504 225.94794083 C-296.45291105 225.93721716 -288.86142093 225.91696056 -281.26991272 225.89482117 C-270.61585412 225.86432659 -259.96179489 225.83509397 -249.307724 225.8092804 C-248.6327252 225.80764221 -247.9577264 225.80600403 -247.26227309 225.80431621 C-236.33559555 225.77805789 -225.40891467 225.75939609 -214.48221897 225.74268849 C-203.23138368 225.72520912 -191.98061356 225.69611659 -180.72982705 225.65779912 C-174.4260201 225.63680324 -168.12230612 225.62128235 -161.81846237 225.61899185 C-155.88398644 225.61683284 -149.94970421 225.60083638 -144.0152874 225.57460213 C-141.84828322 225.56745586 -139.68125544 225.56528522 -137.51424217 225.56870461 C-108.36187476 225.60732787 -82.32620864 218.7438743 -60.02256775 199.14717102 C-59.21690369 198.4845929 -58.41123962 197.82201477 -57.5811615 197.13935852 C-35.7045645 178.5836221 -21.96188726 150.11331481 -19.48277283 121.7323761 C-18.81695973 112.66337213 -18.869855 103.58683063 -18.85390282 94.49761009 C-18.84664952 91.22202818 -18.83092351 87.9465886 -18.81256104 84.67105103 C-18.76046944 75.36778061 -18.71206616 66.06459825 -18.69664001 56.76118469 C-18.68654932 51.04667828 -18.65721624 45.33254692 -18.61532021 39.61818886 C-18.60304135 37.45057321 -18.59788323 35.28290463 -18.60011864 33.11525536 C-18.60247668 30.0860166 -18.58027282 27.05785559 -18.55259705 24.02876282 C-18.55919846 23.14287476 -18.56579987 22.25698669 -18.57260132 21.34425354 C-18.47366733 14.72922212 -16.95818442 9.12066661 -12.2061615 4.30732727 C-11.62995056 3.94510071 -11.05373962 3.58287415 -10.46006775 3.20967102 C-9.88127869 2.82939758 -9.30248962 2.44912415 -8.7061615 2.05732727 C-5.76179864 0.46559514 -3.28165205 0.01978866 0 0 Z " fill="#FEC91D" transform="translate(764.0225677490234,291.8528289794922)"/>
<path d="M0 0 C1.03012207 0.1018158 1.03012207 0.1018158 2.08105469 0.20568848 C55.69276037 5.516113 105.68706916 15.57768601 142.7890625 58.23828125 C153.69305358 71.85863759 162.11070803 87.32109351 166.9375 104.125 C167.12481689 104.76735596 167.31213379 105.40971191 167.50512695 106.0715332 C171.35113868 120.79210265 171.29585844 136.14550892 171.2746582 151.24121094 C171.27901663 153.31799501 171.28420349 155.39477748 171.29014587 157.47155762 C171.30342628 163.06271015 171.30412682 168.65379463 171.30158257 174.24495983 C171.30050527 178.93613856 171.30541554 183.62730394 171.310188 188.31847978 C171.32124552 199.39885365 171.32174196 210.47919361 171.31567383 221.55957031 C171.30963831 232.9367732 171.32194308 244.31385229 171.3432439 255.69103408 C171.36093858 265.50819228 171.36684888 275.32531136 171.36360615 285.1424849 C171.3618055 290.98414118 171.36430638 296.82570914 171.37832069 302.66735077 C171.39102312 308.1669041 171.38883932 313.6662664 171.37590981 319.16581726 C171.37357115 321.16625792 171.37617929 323.16671256 171.38453293 325.16713715 C171.54016791 365.38519215 160.72588421 399.86875801 132.3125 429.0625 C126.13298065 435.23407269 119.30051893 440.23972011 112 445 C111.03578125 445.63679688 110.0715625 446.27359375 109.078125 446.9296875 C90.31835034 458.58976844 68.24305194 464.17605285 46.28263855 464.13130188 C44.8773199 464.13447545 44.8773199 464.13447545 43.44361097 464.13771313 C40.32592071 464.14367129 37.20827141 464.14271597 34.09057617 464.1418457 C31.84586519 464.14488011 29.60115483 464.14840235 27.35644531 464.15237427 C22.53078837 464.16024413 17.70513875 464.16540106 12.87947655 464.16866493 C5.23231648 464.17459775 -2.41479759 464.19116117 -10.06193542 464.21000671 C-12.68557832 464.21634375 -15.30922124 464.22266938 -17.93286419 464.22898388 C-19.9035429 464.2337326 -19.9035429 464.2337326 -21.91403329 464.23857725 C-28.70074266 464.25472335 -35.48745518 464.26927179 -42.27416992 464.28295898 C-43.29491436 464.28502279 -43.29491436 464.28502279 -44.33627989 464.28712829 C-55.3379221 464.3090092 -66.33955279 464.31980372 -77.34121291 464.32732973 C-88.67341331 464.33543821 -100.00549881 464.35910961 -111.33765048 464.3952834 C-117.68522239 464.41495166 -124.03262373 464.42747945 -130.38022804 464.42244911 C-136.36153224 464.41776669 -142.34251405 464.43180257 -148.32375336 464.45946121 C-150.50358967 464.46631304 -152.68345976 464.46656541 -154.8632946 464.45926094 C-189.41103538 464.3553005 -217.86154515 474.59245602 -243.47265625 498.4765625 C-256.03608199 511.02057027 -265.64265051 527.46503332 -270.75 544.4375 C-270.94875732 545.09266602 -271.14751465 545.74783203 -271.35229492 546.42285156 C-275.19212314 559.97828455 -275.28280699 573.33582607 -275.27439499 587.31632423 C-275.27342051 590.89440006 -275.28647733 594.47218305 -275.30337524 598.05021667 C-275.34939084 608.21371283 -275.37427132 618.37717449 -275.38085938 628.54077148 C-275.3858768 634.78043521 -275.41012579 641.01978633 -275.44618607 647.2593441 C-275.45596582 649.62792776 -275.45832602 651.99655447 -275.45301437 654.36515236 C-275.4459344 657.67452095 -275.46324223 660.98295596 -275.48583984 664.29223633 C-275.47358116 665.74730339 -275.47358116 665.74730339 -275.46107483 667.23176575 C-275.54666626 674.29303963 -277.13697338 679.54301214 -281.67578125 685.0234375 C-282.48595703 685.69246094 -282.48595703 685.69246094 -283.3125 686.375 C-283.84488281 686.83648438 -284.37726563 687.29796875 -284.92578125 687.7734375 C-290.18428253 690.8829844 -295.86525123 691.29367301 -301.83691406 691.25878906 C-302.96309647 691.26404602 -302.96309647 691.26404602 -304.11203003 691.26940918 C-306.57999091 691.27816629 -309.04766146 691.27239154 -311.515625 691.265625 C-313.25372369 691.26697507 -314.99182202 691.26891843 -316.72991943 691.27142334 C-320.37467033 691.27436792 -324.01932306 691.27010468 -327.6640625 691.26074219 C-332.2794813 691.24945015 -336.89466479 691.2558456 -341.51007462 691.26788712 C-345.10518066 691.27521165 -348.7002336 691.2727683 -352.29534149 691.26763153 C-353.99336527 691.26631871 -355.69139424 691.26785723 -357.38941193 691.27259064 C-372.46171255 691.30534145 -388.09636596 690.96717048 -402.6875 686.8125 C-403.46311279 686.59819336 -404.23872559 686.38388672 -405.0378418 686.16308594 C-423.28389572 680.89618377 -438.7883052 671.54910871 -453 659 C-453.66 658.42378906 -454.32 657.84757813 -455 657.25390625 C-502.16547218 613.13453748 -513.42438809 530.35235376 -515.75 469.4375 C-517.22000734 418.92483335 -511.0559514 359.48819345 -490 313 C-489.69481445 312.3208252 -489.38962891 311.64165039 -489.07519531 310.94189453 C-472.96897538 275.68345971 -444.21240049 247.2605598 -408 233 C-390.09987865 226.42814236 -372.17765942 222.82841477 -353.0980072 222.87974548 C-351.34075383 222.87846385 -351.34075383 222.87846385 -349.5480004 222.87715632 C-346.31887086 222.87580034 -343.08978206 222.87890138 -339.86065733 222.88393438 C-336.36998541 222.88827145 -332.87931522 222.88679015 -329.38864136 222.8860321 C-323.34828687 222.88550893 -317.30794323 222.88863415 -311.26759148 222.89426994 C-302.53436423 222.90241292 -293.8011422 222.90500303 -285.06791157 222.90625793 C-270.89724082 222.90844406 -256.72657583 222.91509223 -242.5559082 222.92456055 C-228.79418975 222.93374603 -215.03247286 222.94082131 -201.27075195 222.94506836 C-199.99735811 222.94546244 -199.99735811 222.94546244 -198.69823914 222.94586449 C-194.43921455 222.94716957 -190.18018995 222.94843327 -185.92116535 222.94967639 C-150.61410595 222.96003532 -115.3070539 222.97791779 -80 223 C-80 215.41 -80 207.82 -80 200 C-82.41046127 200.00888245 -84.82092255 200.01776489 -87.3044281 200.0269165 C-110.00860965 200.10866562 -132.7127718 200.168188 -155.41706753 200.20724869 C-167.08987174 200.2278649 -178.76256789 200.25596764 -190.43530273 200.30175781 C-200.61047265 200.34165423 -210.78556428 200.36743966 -220.96081024 200.37635398 C-226.34744557 200.38156393 -231.73385697 200.39378989 -237.12042046 200.42292023 C-242.19374706 200.45013349 -247.26675817 200.45843299 -252.34015083 200.45243073 C-254.19889161 200.45352831 -256.05764329 200.46144685 -257.9163208 200.4768219 C-278.00792851 200.63482422 -278.00792851 200.63482422 -284.55901241 194.55255508 C-291.09937379 187.18631442 -291.15379334 179.51773476 -291.1328125 170.125 C-291.13376923 169.16464844 -291.13472595 168.20429688 -291.13571167 167.21484375 C-291.1363912 165.17740819 -291.13455275 163.13997044 -291.13037109 161.10253906 C-291.12511374 158.06570201 -291.13027428 155.02901938 -291.13671875 151.9921875 C-291.14078024 142.02351573 -291.002417 132.07327393 -290.5703125 122.11328125 C-290.51534103 120.80188171 -290.51534103 120.80188171 -290.45925903 119.46398926 C-289.18181779 93.07982899 -282.25504047 67.76807085 -264 48 C-263.37738281 47.29746094 -262.75476563 46.59492187 -262.11328125 45.87109375 C-228.1877523 9.52739293 -166.40957598 4.32417102 -120 0 C-118.96504395 -0.10441406 -117.93008789 -0.20882812 -116.86376953 -0.31640625 C-78.48202853 -4.08716022 -38.36503572 -3.87141822 0 0 Z M-231.99609375 73.89453125 C-232.98802734 74.93673828 -232.98802734 74.93673828 -234 76 C-234.85271484 76.84111328 -234.85271484 76.84111328 -235.72265625 77.69921875 C-251.57687017 94.44548563 -250.17508825 120.31149706 -250.0625 141.75 C-250.05747197 143.42968616 -250.05291138 145.10937378 -250.04882812 146.7890625 C-250.03793264 150.85941196 -250.02074084 154.92968929 -250 159 C-248.51905602 159.00358253 -248.51905602 159.00358253 -247.00819397 159.00723743 C-222.97948305 159.06604522 -198.9508723 159.14193604 -174.92227173 159.23571491 C-163.30219429 159.28067073 -151.68214748 159.32008596 -140.06201172 159.34643555 C-129.93330596 159.36941728 -119.80469716 159.4028174 -109.67606831 159.44870156 C-104.31358211 159.47263128 -98.95119193 159.49136175 -93.58865356 159.49761391 C-88.53910351 159.50366581 -83.48979912 159.5236698 -78.44034004 159.55427551 C-76.58927682 159.56305398 -74.7381815 159.56677872 -72.88709831 159.56500816 C-70.35413735 159.56335067 -67.82192107 159.58009485 -65.2890625 159.60127258 C-64.19758707 159.59400122 -64.19758707 159.59400122 -63.08406162 159.58658296 C-56.61626375 159.67545376 -51.17599718 161.16249127 -46.1875 165.375 C-41.95884477 170.44938628 -40.62381205 173.63573657 -40.59594727 180.32543945 C-40.58565239 181.40453583 -40.58565239 181.40453583 -40.57514954 182.50543213 C-40.55690439 184.87491813 -40.56071666 187.2437403 -40.56640625 189.61328125 C-40.56184224 191.26849074 -40.55653601 192.92369834 -40.55052185 194.5789032 C-40.54159442 198.04641419 -40.54400831 201.51369485 -40.55395508 204.98120117 C-40.5654246 209.40965328 -40.54526292 213.83730559 -40.51603794 218.26565266 C-40.49762496 221.68449399 -40.49797883 225.10314564 -40.50367546 228.52202415 C-40.50382816 230.15379137 -40.49782656 231.78557186 -40.48538399 233.41729164 C-40.38147129 249.28296152 -40.38147129 249.28296152 -45 256 C-49.55239654 260.43566843 -54.02081806 262.25072279 -60.34273243 262.24774647 C-61.9395678 262.25431946 -61.9395678 262.25431946 -63.56866246 262.26102525 C-64.73224851 262.25567992 -65.89583456 262.25033458 -67.09468079 262.24482727 C-68.33566991 262.24709184 -69.57665902 262.24935642 -70.85525388 262.25168961 C-74.2979847 262.25607207 -77.74049854 262.25154869 -81.18320882 262.243379 C-84.89800221 262.2367881 -88.61278097 262.24179957 -92.32757568 262.24560547 C-98.7684715 262.25082991 -105.20933724 262.24933196 -111.65023232 262.24382973 C-121.85214816 262.23560405 -132.05399944 262.24685975 -142.25590515 262.2610321 C-145.75075611 262.26563359 -149.24560725 262.27008397 -152.74045849 262.27447033 C-153.61398808 262.27556847 -154.48751766 262.27666661 -155.38751784 262.27779803 C-165.33280559 262.28997387 -175.27809542 262.29752321 -185.22338867 262.3034668 C-186.13238445 262.30401486 -187.04138023 262.30456292 -187.97792133 262.30512758 C-202.66304389 262.31356172 -217.34814804 262.31026166 -232.03327069 262.30431245 C-247.13959055 262.29867272 -262.24581871 262.31234265 -277.35211056 262.34186524 C-286.6505207 262.35930858 -295.94866412 262.36115489 -305.2470726 262.34222009 C-311.64066828 262.33051327 -318.03408603 262.33722504 -324.42765883 262.3576893 C-328.10263595 262.36888426 -331.77715272 262.3724744 -335.45210838 262.35351372 C-372.6786929 262.17497438 -404.35061361 269.97762502 -431.45703125 296.39453125 C-448.1500928 314.02310589 -457.23643149 336.11199203 -462.5 359.5 C-462.80532717 360.8384558 -463.11099498 362.17683394 -463.41699219 363.51513672 C-464.28870882 367.34104287 -465.14523357 371.17027022 -466 375 C-466.32581055 376.44294434 -466.32581055 376.44294434 -466.65820312 377.91503906 C-475.89114295 418.96249866 -479.14382194 463.377654 -472 505 C-471.64289281 507.26536733 -471.28751686 509.53100803 -470.93359375 511.796875 C-463.95367535 555.35558643 -455.31867049 607.55205057 -417.375 635.5625 C-400.33465018 646.98371606 -383.84554032 650.17690483 -363.65625 650.09765625 C-362.27762911 650.09578788 -360.89900754 650.09436596 -359.52038574 650.09336853 C-355.916851 650.08957635 -352.31335748 650.07977478 -348.70983887 650.06866455 C-345.02271075 650.05837896 -341.33557588 650.05385569 -337.6484375 650.04882812 C-330.43227301 650.03814909 -323.21614231 650.02111299 -316 650 C-315.98786972 648.35867348 -315.98786972 648.35867348 -315.97549438 646.68418884 C-315.89762036 636.31388117 -315.80978129 625.94369807 -315.71247292 615.57355404 C-315.66277213 610.24364197 -315.61644229 604.91374726 -315.578125 599.58374023 C-315.54093787 594.42890997 -315.49449283 589.27423491 -315.44193649 584.11953926 C-315.42356839 582.16424883 -315.40839746 580.20892536 -315.39665604 578.25358391 C-315.13785894 536.60102402 -301.35692854 500.05382892 -272 470 C-271.21367187 469.15179688 -270.42734375 468.30359375 -269.6171875 467.4296875 C-248.2179667 444.90047484 -219.10194075 431.85297697 -189 426 C-187.74069798 425.74298593 -187.74069798 425.74298593 -186.45595551 425.48077965 C-182.0854256 424.87276782 -177.8202071 424.85668669 -173.41320801 424.86196899 C-172.45424102 424.85914771 -171.49527404 424.85632643 -170.50724745 424.85341966 C-167.29714112 424.84509361 -164.08706936 424.8437371 -160.87695312 424.84228516 C-158.5736888 424.83761536 -156.27042538 424.83247152 -153.96716309 424.82688904 C-149.00720812 424.81561621 -144.04725913 424.80717798 -139.08729553 424.80076981 C-131.23619357 424.79007637 -123.3851345 424.76982684 -115.53405762 424.74765015 C-112.8441545 424.74017085 -110.1542512 424.73275699 -107.46434784 424.72536278 C-106.79212445 424.72351221 -106.11990107 424.72166165 -105.42730728 424.719755 C-97.78031831 424.69884071 -90.13332471 424.68000804 -82.48632812 424.66210938 C-81.43824853 424.6596521 -81.43824853 424.6596521 -80.36899561 424.65714519 C-69.06242059 424.6308965 -57.75584234 424.61223193 -46.4492498 424.59551747 C-34.82112576 424.57805119 -23.19306819 424.54896917 -11.56499434 424.5106281 C-5.04433369 424.48960432 1.47623666 424.47410739 7.99693298 424.47182083 C14.13654109 424.46966538 20.27596129 424.45370458 26.41551208 424.42743111 C28.66075604 424.42027051 30.90602285 424.4181213 33.15127563 424.42153358 C44.82674388 424.43643486 55.6963543 424.2424472 67 421 C67.76727165 420.78279612 68.5345433 420.56559223 69.32506561 420.34180641 C91.35378352 413.56245124 109.3962853 398.4993549 120.26855469 378.16455078 C127.04371825 364.92794732 130.15048846 351.61302389 130.14717102 336.75561523 C130.15268605 335.40859811 130.15268605 335.40859811 130.1583125 334.03436852 C130.16927508 331.04243766 130.17318049 328.05054161 130.17700195 325.05859375 C130.18327225 322.90606071 130.18991954 320.75352873 130.19691467 318.60099792 C130.21789127 311.54650619 130.22831152 304.4920144 130.23828125 297.4375 C130.24233129 295.00225819 130.24644828 292.56701649 130.25063133 290.1317749 C130.26966945 278.68738769 130.28390301 267.24300687 130.2922433 255.79860687 C130.30200886 242.61865313 130.32831657 229.43886762 130.36874419 216.25897312 C130.39897264 206.05142613 130.41371858 195.84392719 130.41702431 185.63633633 C130.41936718 179.5493007 130.42822816 173.46244509 130.45348549 167.37545776 C130.47688897 161.6429163 130.48095027 155.91067185 130.47072411 150.17809486 C130.47023161 148.08524903 130.47646671 145.99238794 130.49028015 143.89958763 C130.65688062 117.14127572 123.34277015 96.4694931 104.375 76.875 C84.72411654 57.35079427 57.05502429 47.27538392 30 44 C28.75331543 43.8443457 27.50663086 43.68869141 26.22216797 43.52832031 C-48.16796958 34.31441014 -149.69458202 26.64610942 -231.99609375 73.89453125 Z " fill="#265C87" transform="translate(553,37)"/>
<path d="M0 0 C1.2249543 -0.01073296 1.2249543 -0.01073296 2.47465515 -0.02168274 C3.36752228 -0.02437164 4.2603894 -0.02706055 5.18031311 -0.02983093 C6.12398239 -0.03640213 7.06765167 -0.04297333 8.03991699 -0.04974365 C11.17403752 -0.06950185 14.30810971 -0.08115426 17.442276 -0.09111023 C18.51781801 -0.09518576 19.59336002 -0.09926128 20.70149422 -0.10346031 C26.41090325 -0.12434678 32.12028817 -0.13862883 37.82972717 -0.147995 C43.67835946 -0.15897371 49.5266022 -0.19326594 55.37509823 -0.23316669 C59.90957247 -0.25956796 64.44395798 -0.2677082 68.97850227 -0.27127647 C71.13067269 -0.27609399 73.28284047 -0.28756631 75.43493462 -0.30631447 C107.59312886 -0.56870439 135.01366105 7.22080547 158.97743225 29.14717102 C160.08538147 30.14877258 160.08538147 30.14877258 161.2157135 31.17060852 C210.33468001 77.82870496 221.19287628 169.11476191 222.88807678 233.56611633 C224.02725179 300.42761643 207.82102614 384.44091197 160.97743225 435.14717102 C160.25169006 435.95412415 159.52594788 436.76107727 158.7782135 437.59248352 C142.40310387 454.96644457 118.76581567 465.89988507 94.91710913 467.3307879 C91.54650613 467.3973081 88.18112952 467.40429661 84.80990601 467.38768005 C82.88470549 467.39024333 82.88470549 467.39024333 80.92061204 467.39285839 C77.38812769 467.39729653 73.85576633 467.38937739 70.32329762 467.37930226 C66.50273296 467.37061864 62.68217454 467.37359138 58.86160278 467.37510681 C52.25214321 467.37615257 45.6427233 467.36990838 39.0332737 467.35863113 C29.4772714 467.34233706 19.92128818 467.33716414 10.3652735 467.33465515 C-5.14088952 467.33028417 -20.64703142 467.31699129 -36.15318298 467.29804993 C-51.2107991 467.27967566 -66.26840947 467.26552673 -81.32603455 467.2570343 C-82.25508721 467.25650885 -83.18413987 467.25598341 -84.14134564 467.25544204 C-88.80239886 467.25283185 -93.46345212 467.25030446 -98.1245054 467.24781823 C-136.75720835 467.22710432 -175.38988502 467.1913424 -214.02256775 467.14717102 C-214.02256775 475.06717102 -214.02256775 482.98717102 -214.02256775 491.14717102 C-210.44446007 491.13717827 -210.44446007 491.13717827 -206.79406738 491.12698364 C-184.32533057 491.0656704 -161.85660479 491.02102934 -139.38780308 490.9917345 C-127.83609271 490.97627272 -116.28444377 490.95519629 -104.73277283 490.92085266 C-94.66307866 490.89092931 -84.59342899 490.87159101 -74.52369159 490.86490554 C-69.19299017 490.86099828 -63.86241603 490.85182985 -58.53175545 490.82998085 C-53.51099438 490.80956941 -48.49041265 490.80334667 -43.46961403 490.80784798 C-41.63023147 490.80702486 -39.79084271 490.80108706 -37.95149612 490.7895546 C-17.27906053 490.6663343 -17.27906053 490.6663343 -10.42881775 496.26826477 C-9.79975525 497.03267883 -9.17069275 497.7970929 -8.52256775 498.58467102 C-7.87288025 499.34650696 -7.22319275 500.1083429 -6.55381775 500.89326477 C-3.95832754 504.71366745 -3.8928562 508.20104536 -3.86143494 512.74751282 C-3.85182739 513.8735643 -3.84221985 514.99961578 -3.83232117 516.15979004 C-3.82594635 517.98465691 -3.82594635 517.98465691 -3.81944275 519.84638977 C-3.81374268 521.10997818 -3.8080426 522.37356659 -3.8021698 523.67544556 C-3.79271603 526.35787037 -3.78582282 529.04018332 -3.78233337 531.72261047 C-3.7779811 534.44084844 -3.76421744 537.1587632 -3.74131775 539.87690735 C-3.45382399 576.66487826 -10.57596983 607.76533412 -37.08506775 634.77217102 C-86.856927 683.96151762 -170.3547299 697.63262449 -237.66044617 697.51777649 C-301.01013341 697.14418311 -379.30332173 683.32659889 -426.94444275 638.08467102 C-429.03238173 636.07884958 -429.03238173 636.07884958 -431.51475525 634.21748352 C-436.04026237 630.48147297 -439.43526708 625.76295512 -443.02256775 621.14717102 C-443.94102478 619.96961243 -443.94102478 619.96961243 -444.8780365 618.76826477 C-453.87153782 606.60542889 -459.67211913 592.84122437 -463.02256775 578.14717102 C-463.28306805 577.01514724 -463.28306805 577.01514724 -463.54883099 575.86025429 C-465.59945938 565.47548821 -465.31117067 555.04500965 -465.29722595 544.50801086 C-465.30157924 542.32857591 -465.30676444 540.14914249 -465.31271362 537.9697113 C-465.32605117 532.07682189 -465.32668794 526.18399682 -465.32415032 520.29109526 C-465.32307664 515.3563227 -465.32797432 510.42156296 -465.33275574 505.48679316 C-465.34383369 493.83369964 -465.34429855 482.18063835 -465.33824158 470.52754211 C-465.33220825 458.54428548 -465.34450049 446.56116981 -465.36581165 434.57792509 C-465.38348462 424.25730979 -465.38941989 413.93673172 -465.3861739 403.61610186 C-465.38436933 397.46650723 -465.38691387 391.31699642 -465.40088844 385.16741562 C-465.41355447 379.37738634 -465.41144043 373.58753886 -465.39847755 367.79751205 C-465.39613088 365.68616166 -465.39877692 363.57479812 -465.40710068 361.46346283 C-465.52737406 328.55315999 -457.45911726 294.86406537 -434.17906189 270.19355774 C-432.47898228 268.49060674 -430.75714219 266.81483147 -429.02256775 265.14717102 C-428.25944275 264.36342102 -427.49631775 263.57967102 -426.71006775 262.77217102 C-425.82319275 261.90592102 -424.93631775 261.03967102 -424.02256775 260.14717102 C-423.34967712 259.48974915 -422.6767865 258.83232727 -421.98350525 258.15498352 C-399.16709548 236.6763437 -368.31679162 225.97012134 -337.23396301 226.00914001 C-335.83537998 226.0049081 -335.83537998 226.0049081 -334.40854275 226.00059068 C-331.31226508 225.99231764 -328.2160235 225.99091274 -325.11973572 225.98945618 C-322.88809103 225.98478255 -320.65644729 225.97963808 -318.42480469 225.97406006 C-313.63135239 225.96281573 -308.83790618 225.95436393 -304.04444504 225.94794083 C-296.45291105 225.93721716 -288.86142093 225.91696056 -281.26991272 225.89482117 C-270.61585412 225.86432659 -259.96179489 225.83509397 -249.307724 225.8092804 C-248.6327252 225.80764221 -247.9577264 225.80600403 -247.26227309 225.80431621 C-236.33559555 225.77805789 -225.40891467 225.75939609 -214.48221897 225.74268849 C-203.23138368 225.72520912 -191.98061356 225.69611659 -180.72982705 225.65779912 C-174.4260201 225.63680324 -168.12230612 225.62128235 -161.81846237 225.61899185 C-155.88398644 225.61683284 -149.94970421 225.60083638 -144.0152874 225.57460213 C-141.84828322 225.56745586 -139.68125544 225.56528522 -137.51424217 225.56870461 C-108.36187476 225.60732787 -82.32620864 218.7438743 -60.02256775 199.14717102 C-59.21690369 198.4845929 -58.41123962 197.82201477 -57.5811615 197.13935852 C-35.7045645 178.5836221 -21.96188726 150.11331481 -19.48277283 121.7323761 C-18.81695973 112.66337213 -18.869855 103.58683063 -18.85390282 94.49761009 C-18.84664952 91.22202818 -18.83092351 87.9465886 -18.81256104 84.67105103 C-18.76046944 75.36778061 -18.71206616 66.06459825 -18.69664001 56.76118469 C-18.68654932 51.04667828 -18.65721624 45.33254692 -18.61532021 39.61818886 C-18.60304135 37.45057321 -18.59788323 35.28290463 -18.60011864 33.11525536 C-18.60247668 30.0860166 -18.58027282 27.05785559 -18.55259705 24.02876282 C-18.55919846 23.14287476 -18.56579987 22.25698669 -18.57260132 21.34425354 C-18.47366733 14.72922212 -16.95818442 9.12066661 -12.2061615 4.30732727 C-11.62995056 3.94510071 -11.05373962 3.58287415 -10.46006775 3.20967102 C-9.88127869 2.82939758 -9.30248962 2.44912415 -8.7061615 2.05732727 C-5.76179864 0.46559514 -3.28165205 0.01978866 0 0 Z M21.97743225 40.14717102 C21.97156601 41.12117859 21.96569977 42.09518616 21.95965576 43.09870911 C21.90181112 52.39198694 21.82874492 61.68504447 21.74171734 70.97809601 C21.69746639 75.75286085 21.65811856 80.52754916 21.6309967 85.30244446 C21.30827222 140.37743832 21.30827222 140.37743832 11.97743225 165.14717102 C11.70382874 165.88548157 11.43022522 166.62379211 11.14833069 167.38447571 C-3.27432033 205.79427263 -32.3674834 236.52341849 -69.69981384 253.48286438 C-71.79753837 254.39713919 -73.90496338 255.28000389 -76.02256775 256.14717102 C-77.03891296 256.56821106 -77.03891296 256.56821106 -78.07579041 256.99775696 C-107.10738578 268.68195913 -139.01321154 266.70660146 -169.67699027 266.6229496 C-176.00084995 266.61104064 -182.32464716 266.62514476 -188.64849854 266.63728333 C-199.24805584 266.654854 -209.84756149 266.66161701 -220.4471283 266.65644836 C-221.11550419 266.65612773 -221.78388007 266.6558071 -222.47250978 266.65547675 C-227.21836269 266.65310274 -231.96421521 266.65019617 -236.71006775 266.64717102 C-242.15074141 266.64370667 -247.59141508 266.64049072 -253.03208923 266.63789368 C-253.70295823 266.63756817 -254.37382723 266.63724265 -255.06502559 266.63690728 C-266.289268 266.63194905 -277.5134448 266.64286196 -288.7376712 266.66446543 C-296.23403412 266.67776106 -303.73005574 266.67199356 -311.22639787 266.65110016 C-315.8957901 266.64206774 -320.56505279 266.64962853 -325.23443413 266.66151237 C-327.38373003 266.66362888 -329.53304587 266.65900648 -331.6823082 266.64680672 C-346.98155743 266.56491277 -361.56363902 267.44072322 -375.33506775 274.89717102 C-375.99402039 275.24223694 -376.65297302 275.58730286 -377.33189392 275.94282532 C-397.40565788 286.71978208 -413.52222564 304.52349673 -420.74717712 326.33467102 C-422.06931799 330.89097185 -423.10893137 335.49123872 -424.02256775 340.14717102 C-424.1987926 341.0297568 -424.37501745 341.91234259 -424.55658245 342.82167339 C-425.1234974 346.86745404 -425.17067473 350.79894078 -425.16973877 354.87857056 C-425.17341546 355.74558269 -425.17709215 356.61259483 -425.18088025 357.50588006 C-425.19187424 360.40495252 -425.1957537 363.30398908 -425.1995697 366.20307922 C-425.20583781 368.28473015 -425.21248491 370.36637996 -425.21948242 372.44802856 C-425.2404917 379.28132859 -425.25088493 386.11462875 -425.260849 392.94795227 C-425.26489834 395.30577798 -425.26901532 397.66360358 -425.27319908 400.02142906 C-425.29224736 411.10541833 -425.30647667 422.18940098 -425.31481105 433.27340347 C-425.32456905 446.03793612 -425.35085264 458.80229471 -425.39131194 471.56676608 C-425.4215576 481.45072422 -425.4362881 491.33463272 -425.43959206 501.21863621 C-425.44193375 507.11291085 -425.45077839 513.00699945 -425.47605324 518.90122414 C-425.49948578 524.4556366 -425.50350658 530.00974257 -425.49329185 535.56419182 C-425.49279999 537.5905014 -425.49901598 539.61682686 -425.5128479 541.64308929 C-425.6714883 566.28368337 -420.28410951 587.53761275 -402.64219666 605.56269836 C-379.38851138 628.31163075 -346.93757967 639.5010919 -316.02256775 647.14717102 C-315.07736267 647.38274719 -314.13215759 647.61832336 -313.15830994 647.86103821 C-306.48181056 649.49348539 -299.77439408 650.86625311 -293.02256775 652.14717102 C-292.04723083 652.34471985 -291.07189392 652.54226868 -290.06700134 652.74580383 C-272.17604908 656.26580764 -254.45047549 656.51895929 -236.27256775 656.52217102 C-235.10289459 656.5240744 -233.93322144 656.52597778 -232.72810364 656.52793884 C-219.342272 656.52547457 -206.26869934 656.10427 -193.02256775 654.14717102 C-191.40366638 653.9364093 -191.40366638 653.9364093 -189.75205994 653.72138977 C-144.72109584 647.85341361 -87.5966743 635.40116186 -58.08506775 597.20967102 C-47.36287983 581.28884654 -43.75015357 565.62667942 -43.92881775 546.59248352 C-43.93635694 545.18762058 -43.94319834 543.78275372 -43.94932556 542.37788391 C-43.96689708 538.96754456 -43.99150222 535.55740968 -44.02256775 532.14717102 C-45.51897293 532.14497118 -45.51897293 532.14497118 -47.04560852 532.1427269 C-71.3246894 532.10612439 -95.60363241 532.04666486 -119.88259888 531.96326828 C-131.62375618 531.92346683 -143.36484636 531.89107991 -155.10606384 531.87617493 C-165.340264 531.8631642 -175.57431652 531.83621418 -185.80843353 531.79255795 C-191.22684005 531.76993029 -196.64506438 531.75426113 -202.06352234 531.75528717 C-207.16565891 531.756033 -212.26739251 531.73811289 -217.36942482 531.70600319 C-219.23983739 531.69749871 -221.11029512 531.69575798 -222.98071861 531.70136833 C-225.54014014 531.70802155 -228.09828451 531.69005686 -230.65757751 531.66615295 C-231.76072579 531.67779358 -231.76072579 531.67779358 -232.8861599 531.68966937 C-239.18267985 531.5859856 -244.27367013 529.46947113 -249.08953857 525.40097046 C-254.52163857 517.89749906 -253.87543986 509.55459807 -253.7842865 500.70576477 C-253.78579137 499.01143117 -253.7892274 497.3170983 -253.79449463 495.62277222 C-253.79881029 492.08473284 -253.78210722 488.54760994 -253.74986267 485.00971985 C-253.71005189 480.49145095 -253.71940501 475.97489623 -253.74409771 471.45657253 C-253.758328 467.96215946 -253.74815745 464.46814199 -253.7305851 460.97375679 C-253.72476627 459.30851755 -253.72599157 457.64323729 -253.7346096 455.97801018 C-253.78860594 440.34104026 -253.78860594 440.34104026 -249.39691162 434.52670288 C-245.73330509 430.84926666 -241.78482724 428.28692634 -236.53202653 428.02116317 C-235.02856947 428.02042854 -235.02856947 428.02042854 -233.49473953 428.01967907 C-232.33804614 428.01667142 -231.18135275 428.01366377 -229.98960805 428.01056498 C-228.07453486 428.01319054 -228.07453486 428.01319054 -226.12077332 428.01586914 C-224.75531541 428.01416749 -223.389858 428.01201803 -222.02440143 428.00945789 C-219.0498661 428.00485489 -216.0753516 428.00344119 -213.10081291 428.00442314 C-208.2609055 428.00601388 -203.42101881 428.00081792 -198.58111572 427.99479675 C-191.55194861 427.98667693 -184.52278513 427.9817374 -177.4936142 427.97850609 C-166.37440463 427.97300946 -155.25522576 427.95611033 -144.1360321 427.93716431 C-140.3312264 427.93080706 -136.52642062 427.92449864 -132.72161484 427.91818714 C-131.29514016 427.9158115 -131.29514016 427.9158115 -129.83984782 427.91338786 C-119.00899235 427.89544317 -108.1781347 427.87922251 -97.34727478 427.86421204 C-96.35703122 427.86283616 -95.36678766 427.86146029 -94.34653673 427.86004273 C-78.32311006 427.83814392 -62.29969128 427.82736452 -46.2762523 427.81984129 C-29.81741894 427.81175765 -13.35865306 427.78842407 3.10014176 427.75188762 C13.24597581 427.7299085 23.3916709 427.72018392 33.53752753 427.72638796 C40.50106717 427.72957341 47.4644886 427.71816101 54.42799166 427.69549354 C58.43998321 427.68288128 62.45171127 427.67658796 66.46371269 427.68791008 C70.14690889 427.69816996 73.82959649 427.68964372 77.51273325 427.66704712 C79.45500172 427.65978584 81.39731395 427.67188878 83.33955169 427.68500727 C100.66812725 427.52702237 116.88997199 421.90999769 129.5750885 409.77998352 C134.27833578 404.62553041 138.19399619 398.99822451 141.97743225 393.14717102 C142.65547913 392.10174133 143.333526 391.05631165 144.03211975 389.97920227 C170.52513462 346.30296692 182.12635531 291.504274 182.28993225 240.95967102 C182.29385986 239.77687057 182.29385986 239.77687057 182.29786682 238.57017517 C182.30415849 220.5802596 180.46641195 202.94480884 177.97743225 185.14717102 C177.82258362 184.02036926 177.66773499 182.8935675 177.50819397 181.73262024 C171.57389437 139.73249984 161.87055356 82.25244845 126.10243225 54.27217102 C109.44376778 42.49805733 93.44381838 39.97591838 73.53993225 40.04951477 C72.04921008 40.05138279 70.55848729 40.05280488 69.06776428 40.05380249 C65.16831225 40.05759746 61.26889821 40.06740152 57.36946106 40.07850647 C53.3807171 40.08878595 49.39196692 40.09331404 45.4032135 40.0983429 C37.59460254 40.10902686 29.78602275 40.12606646 21.97743225 40.14717102 Z " fill="#BF9815" transform="translate(764.0225677490234,291.8528289794922)"/>
<path d="M0 0 C9.2024191 6.56227679 16.84204538 15.67958234 19 27 C20.31433754 38.2156803 17.65980317 48.19742884 11.125 57.4375 C4.62078783 65.27887254 -2.8924884 70.01960031 -13 72 C-25.60810763 72.96863295 -34.96230242 70.72211031 -44.7421875 62.54296875 C-52.01600647 55.87790287 -56.46275372 46.67838449 -57.25390625 36.84375 C-57.63714566 25.47019341 -55.2800635 16.77651183 -47.9140625 8 C-34.8147083 -5.68748847 -16.83246428 -9.06038541 0 0 Z " fill="#FFFEFD" transform="translate(649,848)"/>
<path d="M0 0 C9.16674081 6.69105168 16.82877705 15.60997798 19 27 C20.31433754 38.2156803 17.65980317 48.19742884 11.125 57.4375 C10.11475065 58.65184013 9.07363606 59.84132346 8 61 C7.49984375 61.54140625 6.9996875 62.0828125 6.484375 62.640625 C-0.51452988 69.36772775 -9.0958694 72.28834917 -18.6875 72.5 C-30.64006027 72.04872987 -40.11729332 67.69771659 -48.3984375 59.01953125 C-56.08224493 49.33043749 -58.04451955 38.07147273 -57 26 C-54.77449851 15.64542122 -48.79455553 7.22229249 -40.0625 1.28515625 C-39.0415625 0.64900391 -39.0415625 0.64900391 -38 0 C-37.38125 -0.41378906 -36.7625 -0.82757813 -36.125 -1.25390625 C-26.06303203 -6.89411095 -9.72278483 -5.75020025 0 0 Z " fill="#FDFEFE" transform="translate(394,107)"/>
</svg>
